<mxfile host="app.diagrams.net" modified="2024-07-12T09:44:51.631Z" agent="Mozilla/5.0 (Macintosh; Intel Mac OS X 10_15_7) AppleWebKit/537.36 (KHTML, like Gecko) Chrome/125.0.0.0 Safari/537.36" etag="rO4ZFPYp1RlJqvga9WDf" version="24.6.5" type="github">
  <diagram id="C5RBs43oDa-KdzZeNtuy" name="Page-1">
    <mxGraphModel dx="2056" dy="979" grid="0" gridSize="10" guides="1" tooltips="1" connect="1" arrows="1" fold="1" page="0" pageScale="1" pageWidth="827" pageHeight="1169" math="0" shadow="0">
      <root>
        <mxCell id="WIyWlLk6GJQsqaUBKTNV-0" />
        <mxCell id="WIyWlLk6GJQsqaUBKTNV-1" parent="WIyWlLk6GJQsqaUBKTNV-0" />
        <mxCell id="tbKcV42rWtBoktEInjHZ-3" value="" style="edgeStyle=orthogonalEdgeStyle;rounded=0;orthogonalLoop=1;jettySize=auto;html=1;" edge="1" parent="WIyWlLk6GJQsqaUBKTNV-1" source="tbKcV42rWtBoktEInjHZ-1" target="tbKcV42rWtBoktEInjHZ-2">
          <mxGeometry relative="1" as="geometry" />
        </mxCell>
        <mxCell id="tbKcV42rWtBoktEInjHZ-1" value="开始" style="ellipse;whiteSpace=wrap;html=1;aspect=fixed;" vertex="1" parent="WIyWlLk6GJQsqaUBKTNV-1">
          <mxGeometry x="-170" y="270" width="80" height="80" as="geometry" />
        </mxCell>
        <mxCell id="tbKcV42rWtBoktEInjHZ-5" value="" style="rounded=0;orthogonalLoop=1;jettySize=auto;html=1;" edge="1" parent="WIyWlLk6GJQsqaUBKTNV-1" source="tbKcV42rWtBoktEInjHZ-2" target="tbKcV42rWtBoktEInjHZ-4">
          <mxGeometry relative="1" as="geometry" />
        </mxCell>
        <mxCell id="tbKcV42rWtBoktEInjHZ-7" value="" style="rounded=0;orthogonalLoop=1;jettySize=auto;html=1;" edge="1" parent="WIyWlLk6GJQsqaUBKTNV-1" source="tbKcV42rWtBoktEInjHZ-2" target="tbKcV42rWtBoktEInjHZ-6">
          <mxGeometry relative="1" as="geometry" />
        </mxCell>
        <mxCell id="tbKcV42rWtBoktEInjHZ-2" value="问题理解" style="whiteSpace=wrap;html=1;fillColor=#fff2cc;strokeColor=#d6b656;" vertex="1" parent="WIyWlLk6GJQsqaUBKTNV-1">
          <mxGeometry x="-50" y="280" width="120" height="60" as="geometry" />
        </mxCell>
        <mxCell id="tbKcV42rWtBoktEInjHZ-9" value="" style="rounded=0;orthogonalLoop=1;jettySize=auto;html=1;" edge="1" parent="WIyWlLk6GJQsqaUBKTNV-1" source="tbKcV42rWtBoktEInjHZ-42" target="tbKcV42rWtBoktEInjHZ-8">
          <mxGeometry relative="1" as="geometry" />
        </mxCell>
        <mxCell id="tbKcV42rWtBoktEInjHZ-17" style="rounded=0;orthogonalLoop=1;jettySize=auto;html=1;entryX=0;entryY=0.5;entryDx=0;entryDy=0;" edge="1" parent="WIyWlLk6GJQsqaUBKTNV-1" source="tbKcV42rWtBoktEInjHZ-4" target="tbKcV42rWtBoktEInjHZ-16">
          <mxGeometry relative="1" as="geometry" />
        </mxCell>
        <mxCell id="tbKcV42rWtBoktEInjHZ-4" value="找数" style="whiteSpace=wrap;html=1;" vertex="1" parent="WIyWlLk6GJQsqaUBKTNV-1">
          <mxGeometry x="114" y="186.5" width="120" height="60" as="geometry" />
        </mxCell>
        <mxCell id="tbKcV42rWtBoktEInjHZ-15" style="rounded=0;orthogonalLoop=1;jettySize=auto;html=1;" edge="1" parent="WIyWlLk6GJQsqaUBKTNV-1" source="tbKcV42rWtBoktEInjHZ-6" target="tbKcV42rWtBoktEInjHZ-14">
          <mxGeometry relative="1" as="geometry" />
        </mxCell>
        <mxCell id="tbKcV42rWtBoktEInjHZ-18" style="rounded=0;orthogonalLoop=1;jettySize=auto;html=1;entryX=0;entryY=0.5;entryDx=0;entryDy=0;" edge="1" parent="WIyWlLk6GJQsqaUBKTNV-1" source="tbKcV42rWtBoktEInjHZ-6" target="tbKcV42rWtBoktEInjHZ-16">
          <mxGeometry relative="1" as="geometry" />
        </mxCell>
        <mxCell id="tbKcV42rWtBoktEInjHZ-6" value="用数" style="whiteSpace=wrap;html=1;" vertex="1" parent="WIyWlLk6GJQsqaUBKTNV-1">
          <mxGeometry x="114" y="374" width="120" height="60" as="geometry" />
        </mxCell>
        <mxCell id="tbKcV42rWtBoktEInjHZ-13" style="edgeStyle=orthogonalEdgeStyle;rounded=0;orthogonalLoop=1;jettySize=auto;html=1;entryX=0;entryY=0.5;entryDx=0;entryDy=0;exitX=1;exitY=0.5;exitDx=0;exitDy=0;" edge="1" parent="WIyWlLk6GJQsqaUBKTNV-1" source="tbKcV42rWtBoktEInjHZ-16" target="tbKcV42rWtBoktEInjHZ-12">
          <mxGeometry relative="1" as="geometry" />
        </mxCell>
        <mxCell id="tbKcV42rWtBoktEInjHZ-20" style="rounded=0;orthogonalLoop=1;jettySize=auto;html=1;entryX=0;entryY=0.5;entryDx=0;entryDy=0;" edge="1" parent="WIyWlLk6GJQsqaUBKTNV-1" source="tbKcV42rWtBoktEInjHZ-8" target="tbKcV42rWtBoktEInjHZ-19">
          <mxGeometry relative="1" as="geometry" />
        </mxCell>
        <mxCell id="tbKcV42rWtBoktEInjHZ-8" value="漏斗排序&lt;div&gt;&lt;span style=&quot;background-color: initial; white-space: pre;&quot; class=&quot;text-only&quot;&gt;召回 -&amp;gt; 粗排 -&amp;gt; 精排 &lt;/span&gt;&lt;span style=&quot;white-space: pre;&quot;&gt;-&amp;gt; &lt;/span&gt;&lt;span style=&quot;background-color: initial; white-space: pre;&quot; class=&quot;text-only text-with-abbreviation text-with-abbreviation-bottomline&quot;&gt;混排&lt;/span&gt;&lt;br&gt;&lt;/div&gt;" style="whiteSpace=wrap;html=1;" vertex="1" parent="WIyWlLk6GJQsqaUBKTNV-1">
          <mxGeometry x="534" y="186" width="167" height="60" as="geometry" />
        </mxCell>
        <mxCell id="tbKcV42rWtBoktEInjHZ-21" style="rounded=0;orthogonalLoop=1;jettySize=auto;html=1;entryX=0;entryY=0.5;entryDx=0;entryDy=0;" edge="1" parent="WIyWlLk6GJQsqaUBKTNV-1" source="tbKcV42rWtBoktEInjHZ-12" target="tbKcV42rWtBoktEInjHZ-19">
          <mxGeometry relative="1" as="geometry" />
        </mxCell>
        <mxCell id="tbKcV42rWtBoktEInjHZ-23" style="rounded=0;orthogonalLoop=1;jettySize=auto;html=1;entryX=0;entryY=0.5;entryDx=0;entryDy=0;" edge="1" parent="WIyWlLk6GJQsqaUBKTNV-1" source="tbKcV42rWtBoktEInjHZ-12" target="tbKcV42rWtBoktEInjHZ-22">
          <mxGeometry relative="1" as="geometry">
            <mxPoint x="759.9000000000001" y="364.5" as="sourcePoint" />
          </mxGeometry>
        </mxCell>
        <mxCell id="tbKcV42rWtBoktEInjHZ-12" value="&lt;div&gt;漏斗排序&lt;div&gt;&lt;span style=&quot;background-color: initial; white-space: pre;&quot; class=&quot;text-only&quot;&gt;召回 -&amp;gt; 粗排 -&amp;gt; 精排 &lt;/span&gt;&lt;span style=&quot;white-space: pre;&quot;&gt;-&amp;gt; &lt;/span&gt;&lt;span style=&quot;background-color: initial; white-space: pre;&quot; class=&quot;text-only text-with-abbreviation text-with-abbreviation-bottomline&quot;&gt;混排&lt;/span&gt;&lt;/div&gt;&lt;/div&gt;" style="whiteSpace=wrap;html=1;fillColor=#fff2cc;strokeColor=#d6b656;" vertex="1" parent="WIyWlLk6GJQsqaUBKTNV-1">
          <mxGeometry x="532" y="279.5" width="169" height="60" as="geometry" />
        </mxCell>
        <mxCell id="tbKcV42rWtBoktEInjHZ-24" style="rounded=0;orthogonalLoop=1;jettySize=auto;html=1;entryX=0;entryY=0.5;entryDx=0;entryDy=0;" edge="1" parent="WIyWlLk6GJQsqaUBKTNV-1" source="tbKcV42rWtBoktEInjHZ-14" target="tbKcV42rWtBoktEInjHZ-22">
          <mxGeometry relative="1" as="geometry" />
        </mxCell>
        <mxCell id="tbKcV42rWtBoktEInjHZ-14" value="元数据搜索&lt;div&gt;（指标中台）&lt;/div&gt;" style="whiteSpace=wrap;html=1;" vertex="1" parent="WIyWlLk6GJQsqaUBKTNV-1">
          <mxGeometry x="320" y="373.5" width="120" height="60" as="geometry" />
        </mxCell>
        <mxCell id="tbKcV42rWtBoktEInjHZ-16" value="文档搜索&lt;div&gt;(&lt;span style=&quot;background-color: initial;&quot;&gt;向量数据库&lt;/span&gt;&lt;span style=&quot;background-color: initial;&quot;&gt;)&lt;/span&gt;&lt;/div&gt;" style="whiteSpace=wrap;html=1;" vertex="1" parent="WIyWlLk6GJQsqaUBKTNV-1">
          <mxGeometry x="317" y="279.5" width="120" height="60" as="geometry" />
        </mxCell>
        <mxCell id="tbKcV42rWtBoktEInjHZ-26" style="edgeStyle=orthogonalEdgeStyle;rounded=0;orthogonalLoop=1;jettySize=auto;html=1;entryX=0;entryY=0.5;entryDx=0;entryDy=0;" edge="1" parent="WIyWlLk6GJQsqaUBKTNV-1" source="tbKcV42rWtBoktEInjHZ-19" target="tbKcV42rWtBoktEInjHZ-25">
          <mxGeometry relative="1" as="geometry" />
        </mxCell>
        <mxCell id="tbKcV42rWtBoktEInjHZ-19" value="重排" style="whiteSpace=wrap;html=1;fillColor=#fff2cc;strokeColor=#d6b656;" vertex="1" parent="WIyWlLk6GJQsqaUBKTNV-1">
          <mxGeometry x="799" y="184" width="120" height="60" as="geometry" />
        </mxCell>
        <mxCell id="tbKcV42rWtBoktEInjHZ-27" style="edgeStyle=orthogonalEdgeStyle;rounded=0;orthogonalLoop=1;jettySize=auto;html=1;entryX=0;entryY=0.5;entryDx=0;entryDy=0;" edge="1" parent="WIyWlLk6GJQsqaUBKTNV-1" source="tbKcV42rWtBoktEInjHZ-22" target="tbKcV42rWtBoktEInjHZ-25">
          <mxGeometry relative="1" as="geometry" />
        </mxCell>
        <mxCell id="tbKcV42rWtBoktEInjHZ-22" value="重排" style="whiteSpace=wrap;html=1;fillColor=#fff2cc;strokeColor=#d6b656;" vertex="1" parent="WIyWlLk6GJQsqaUBKTNV-1">
          <mxGeometry x="799" y="371" width="120" height="60" as="geometry" />
        </mxCell>
        <mxCell id="tbKcV42rWtBoktEInjHZ-31" style="edgeStyle=orthogonalEdgeStyle;rounded=0;orthogonalLoop=1;jettySize=auto;html=1;entryX=0;entryY=0.5;entryDx=0;entryDy=0;" edge="1" parent="WIyWlLk6GJQsqaUBKTNV-1" source="tbKcV42rWtBoktEInjHZ-25" target="tbKcV42rWtBoktEInjHZ-30">
          <mxGeometry relative="1" as="geometry" />
        </mxCell>
        <mxCell id="tbKcV42rWtBoktEInjHZ-25" value="总结" style="whiteSpace=wrap;html=1;fillColor=#fff2cc;strokeColor=#d6b656;" vertex="1" parent="WIyWlLk6GJQsqaUBKTNV-1">
          <mxGeometry x="994" y="277" width="120" height="60" as="geometry" />
        </mxCell>
        <mxCell id="tbKcV42rWtBoktEInjHZ-30" value="结束" style="ellipse;whiteSpace=wrap;html=1;aspect=fixed;" vertex="1" parent="WIyWlLk6GJQsqaUBKTNV-1">
          <mxGeometry x="1160" y="267" width="80" height="80" as="geometry" />
        </mxCell>
        <mxCell id="tbKcV42rWtBoktEInjHZ-32" value="" style="edgeStyle=orthogonalEdgeStyle;rounded=0;orthogonalLoop=1;jettySize=auto;html=1;" edge="1" parent="WIyWlLk6GJQsqaUBKTNV-1" source="tbKcV42rWtBoktEInjHZ-33" target="tbKcV42rWtBoktEInjHZ-36">
          <mxGeometry relative="1" as="geometry" />
        </mxCell>
        <mxCell id="tbKcV42rWtBoktEInjHZ-33" value="开始" style="ellipse;whiteSpace=wrap;html=1;aspect=fixed;" vertex="1" parent="WIyWlLk6GJQsqaUBKTNV-1">
          <mxGeometry x="-139" y="971" width="80" height="80" as="geometry" />
        </mxCell>
        <mxCell id="tbKcV42rWtBoktEInjHZ-35" value="" style="rounded=0;orthogonalLoop=1;jettySize=auto;html=1;" edge="1" parent="WIyWlLk6GJQsqaUBKTNV-1" source="tbKcV42rWtBoktEInjHZ-36" target="tbKcV42rWtBoktEInjHZ-38">
          <mxGeometry relative="1" as="geometry" />
        </mxCell>
        <mxCell id="tbKcV42rWtBoktEInjHZ-36" value="问题理解" style="whiteSpace=wrap;html=1;fillColor=#fff2cc;strokeColor=#d6b656;" vertex="1" parent="WIyWlLk6GJQsqaUBKTNV-1">
          <mxGeometry x="-19" y="981" width="120" height="60" as="geometry" />
        </mxCell>
        <mxCell id="tbKcV42rWtBoktEInjHZ-38" value="用数" style="whiteSpace=wrap;html=1;" vertex="1" parent="WIyWlLk6GJQsqaUBKTNV-1">
          <mxGeometry x="222" y="978" width="120" height="60" as="geometry" />
        </mxCell>
        <mxCell id="tbKcV42rWtBoktEInjHZ-39" value="愿数据" style="whiteSpace=wrap;html=1;" vertex="1" parent="WIyWlLk6GJQsqaUBKTNV-1">
          <mxGeometry x="222" y="887" width="120" height="60" as="geometry" />
        </mxCell>
        <mxCell id="tbKcV42rWtBoktEInjHZ-40" value="用数" style="whiteSpace=wrap;html=1;" vertex="1" parent="WIyWlLk6GJQsqaUBKTNV-1">
          <mxGeometry x="222" y="1069" width="120" height="60" as="geometry" />
        </mxCell>
        <mxCell id="tbKcV42rWtBoktEInjHZ-41" value="文档数据" style="whiteSpace=wrap;html=1;" vertex="1" parent="WIyWlLk6GJQsqaUBKTNV-1">
          <mxGeometry x="222" y="797" width="120" height="60" as="geometry" />
        </mxCell>
        <mxCell id="tbKcV42rWtBoktEInjHZ-43" value="" style="rounded=0;orthogonalLoop=1;jettySize=auto;html=1;" edge="1" parent="WIyWlLk6GJQsqaUBKTNV-1" source="tbKcV42rWtBoktEInjHZ-4" target="tbKcV42rWtBoktEInjHZ-42">
          <mxGeometry relative="1" as="geometry">
            <mxPoint x="234" y="218" as="sourcePoint" />
            <mxPoint x="627" y="172" as="targetPoint" />
          </mxGeometry>
        </mxCell>
        <mxCell id="tbKcV42rWtBoktEInjHZ-42" value="元数据搜索&lt;div&gt;（元数据系统）&lt;/div&gt;" style="whiteSpace=wrap;html=1;" vertex="1" parent="WIyWlLk6GJQsqaUBKTNV-1">
          <mxGeometry x="320" y="186.5" width="120" height="60" as="geometry" />
        </mxCell>
        <mxCell id="tbKcV42rWtBoktEInjHZ-46" value="漏斗排序&lt;div&gt;&lt;span style=&quot;background-color: initial; white-space: pre;&quot; class=&quot;text-only&quot;&gt;召回 -&amp;gt; 粗排 -&amp;gt; 精排 &lt;/span&gt;&lt;span style=&quot;white-space: pre;&quot;&gt;-&amp;gt; &lt;/span&gt;&lt;span style=&quot;background-color: initial; white-space: pre;&quot; class=&quot;text-only text-with-abbreviation text-with-abbreviation-bottomline&quot;&gt;混排&lt;/span&gt;&lt;br&gt;&lt;/div&gt;" style="whiteSpace=wrap;html=1;" vertex="1" parent="WIyWlLk6GJQsqaUBKTNV-1">
          <mxGeometry x="534" y="373" width="167" height="60" as="geometry" />
        </mxCell>
      </root>
    </mxGraphModel>
  </diagram>
</mxfile>
